{"asset":{"version":"2.0","generator":"babylon.js glTF exporter for maya 2018 v1.3.1"},"scene":0,"scenes":[{"nodes":[0],"extensions":{}}],"nodes":[{"children":[1,2,3,4,5,6,7,8,9,10,11,12],"translation":[0.0,0.0,0.0],"rotation":[0.0,0.0,0.0,1.0],"scale":[1.0,1.0,1.0],"name":"subs"},{"mesh":0,"translation":[0.0,0.0,0.0],"rotation":[0.0,0.0,0.0,1.0],"scale":[1.0,1.0,1.0],"name":"NT_furniture"},{"mesh":1,"translation":[0.0,0.0,0.0],"rotation":[0.0,0.0,0.0,1.0],"scale":[1.0,1.0,1.0],"name":"NT_body_down"},{"mesh":2,"translation":[0.0,0.0,0.0],"rotation":[0.0,0.0,0.0,1.0],"scale":[1.0,1.0,1.0],"name":"NT_silver"},{"mesh":3,"translation":[0.0,0.0,0.0],"rotation":[0.0,0.0,0.0,1.0],"scale":[1.0,1.0,1.0],"name":"NT_grass"},{"mesh":4,"translation":[0.0,0.0,0.0],"rotation":[0.0,0.0,0.0,1.0],"scale":[1.0,1.0,1.0],"name":"NT_black"},{"mesh":5,"translation":[0.0,0.0,0.0],"rotation":[0.0,0.0,0.0,1.0],"scale":[1.0,1.0,1.0],"name":"GL_glass"},{"mesh":6,"translation":[0.0,0.0,0.0],"rotation":[0.0,0.0,0.0,1.0],"scale":[1.0,1.0,1.0],"name":"NT_ceramic"},{"mesh":7,"translation":[0.0,0.0,0.0],"rotation":[0.0,0.0,0.0,1.0],"scale":[1.0,1.0,1.0],"name":"NR_corpus"},{"mesh":8,"translation":[0.0,0.0,0.0],"rotation":[0.0,0.0,0.0,1.0],"scale":[1.0,1.0,1.0],"name":"NT_other"},{"mesh":9,"translation":[0.0,0.0,0.0],"rotation":[0.0,0.0,0.0,1.0],"scale":[1.0,1.0,1.0],"name":"texture"},{"mesh":10,"translation":[0.0,0.0,0.0],"rotation":[0.0,0.0,0.0,1.0],"scale":[1.0,1.0,1.0],"name":"NT_steel"},{"mesh":11,"translation":[0.0,0.0,0.0],"rotation":[0.0,0.0,0.0,1.0],"scale":[1.0,1.0,1.0],"name":"NT_white"}],"meshes":[{"primitives":[{"attributes":{"POSITION":1,"NORMAL":2,"TANGENT":3,"TEXCOORD_0":4},"indices":0,"mode":4,"material":0}],"name":"NT_furniture"},{"primitives":[{"attributes":{"POSITION":6,"NORMAL":7,"TANGENT":8,"TEXCOORD_0":9},"indices":5,"mode":4,"material":1}],"name":"NT_body_down"},{"primitives":[{"attributes":{"POSITION":11,"NORMAL":12,"TANGENT":13,"TEXCOORD_0":14},"indices":10,"mode":4,"material":2}],"name":"NT_silver"},{"primitives":[{"attributes":{"POSITION":16,"NORMAL":17,"TANGENT":18,"TEXCOORD_0":19},"indices":15,"mode":4,"material":3}],"name":"NT_grass"},{"primitives":[{"attributes":{"POSITION":21,"NORMAL":22,"TANGENT":23,"TEXCOORD_0":24},"indices":20,"mode":4,"material":4}],"name":"NT_black"},{"primitives":[{"attributes":{"POSITION":26,"NORMAL":27,"TANGENT":28,"COLOR_0":29,"TEXCOORD_0":30},"indices":25,"mode":4,"material":5}],"name":"GL_glass"},{"primitives":[{"attributes":{"POSITION":32,"NORMAL":33,"TANGENT":34,"COLOR_0":35,"TEXCOORD_0":36},"indices":31,"mode":4,"material":6}],"name":"NT_ceramic"},{"primitives":[{"attributes":{"POSITION":38,"NORMAL":39,"TANGENT":40,"TEXCOORD_0":41},"indices":37,"mode":4,"material":7}],"name":"NR_corpus"},{"primitives":[{"attributes":{"POSITION":43,"NORMAL":44,"TANGENT":45,"TEXCOORD_0":46},"indices":42,"mode":4,"material":7}],"name":"NT_other"},{"primitives":[{"attributes":{"POSITION":48,"NORMAL":49,"TANGENT":50,"TEXCOORD_0":51},"indices":47,"mode":4,"material":8}],"name":"texture"},{"primitives":[{"attributes":{"POSITION":53,"NORMAL":54,"TANGENT":55,"TEXCOORD_0":56},"indices":52,"mode":4,"material":9}],"name":"NT_steel"},{"primitives":[{"attributes":{"POSITION":58,"NORMAL":59,"TANGENT":60,"TEXCOORD_0":61},"indices":57,"mode":4,"material":10}],"name":"NT_white"}],"accessors":[{"bufferView":0,"componentType":5123,"count":30600,"type":"SCALAR","name":"accessorIndices"},{"bufferView":1,"componentType":5126,"count":6760,"max":[103.8106,172.09407,30.2898388],"min":[-103.754768,61.3763123,-1.22477341],"type":"VEC3","name":"accessorPositions"},{"bufferView":1,"byteOffset":81120,"componentType":5126,"count":6760,"type":"VEC3","name":"accessorNormals"},{"bufferView":2,"componentType":5126,"count":6760,"type":"VEC4","name":"accessorTangents"},{"bufferView":3,"componentType":5126,"count":6760,"type":"VEC2","name":"accessorUVs"},{"bufferView":0,"byteOffset":61200,"componentType":5123,"count":840,"type":"SCALAR","name":"accessorIndices"},{"bufferView":1,"byteOffset":162240,"componentType":5126,"count":496,"max":[119.956718,202.124374,23.4919147],"min":[-119.843086,10.0018387,-32.9301147],"type":"VEC3","name":"accessorPositions"},{"bufferView":1,"byteOffset":168192,"componentType":5126,"count":496,"type":"VEC3","name":"accessorNormals"},{"bufferView":2,"byteOffset":108160,"componentType":5126,"count":496,"type":"VEC4","name":"accessorTangents"},{"bufferView":3,"byteOffset":54080,"componentType":5126,"count":496,"type":"VEC2","name":"accessorUVs"},{"bufferView":0,"byteOffset":62880,"componentType":5123,"count":81786,"type":"SCALAR","name":"accessorIndices"},{"bufferView":1,"byteOffset":174144,"componentType":5126,"count":24091,"max":[120.179237,204.324432,32.9301147],"min":[-120.257561,2.16608238,-31.9996319],"type":"VEC3","name":"accessorPositions"},{"bufferView":1,"byteOffset":463236,"componentType":5126,"count":24091,"type":"VEC3","name":"accessorNormals"},{"bufferView":2,"byteOffset":116096,"componentType":5126,"count":24091,"type":"VEC4","name":"accessorTangents"},{"bufferView":3,"byteOffset":58048,"componentType":5126,"count":24091,"type":"VEC2","name":"accessorUVs"},{"bufferView":0,"byteOffset":226452,"componentType":5123,"count":76146,"type":"SCALAR","name":"accessorIndices"},{"bufferView":1,"byteOffset":752328,"componentType":5126,"count":21917,"max":[-92.2548752,120.108536,-3.58599854],"min":[-118.246941,95.59827,-25.9259338],"type":"VEC3","name":"accessorPositions"},{"bufferView":1,"byteOffset":1015332,"componentType":5126,"count":21917,"type":"VEC3","name":"accessorNormals"},{"bufferView":2,"byteOffset":501552,"componentType":5126,"count":21917,"type":"VEC4","name":"accessorTangents"},{"bufferView":3,"byteOffset":250776,"componentType":5126,"count":21917,"type":"VEC2","name":"accessorUVs"},{"bufferView":0,"byteOffset":378744,"componentType":5123,"count":53196,"type":"SCALAR","name":"accessorIndices"},{"bufferView":1,"byteOffset":1278336,"componentType":5126,"count":14261,"max":[119.958366,86.91858,28.1565762],"min":[-119.847931,0.0,-25.3755932],"type":"VEC3","name":"accessorPositions"},{"bufferView":1,"byteOffset":1449468,"componentType":5126,"count":14261,"type":"VEC3","name":"accessorNormals"},{"bufferView":2,"byteOffset":852224,"componentType":5126,"count":14261,"type":"VEC4","name":"accessorTangents"},{"bufferView":3,"byteOffset":426112,"componentType":5126,"count":14261,"type":"VEC2","name":"accessorUVs"},{"bufferView":0,"byteOffset":485136,"componentType":5123,"count":16200,"type":"SCALAR","name":"accessorIndices"},{"bufferView":1,"byteOffset":1620600,"componentType":5126,"count":3306,"max":[20.12512,120.641785,28.07195],"min":[-60.0657425,32.655735,-23.44502],"type":"VEC3","name":"accessorPositions"},{"bufferView":1,"byteOffset":1660272,"componentType":5126,"count":3306,"type":"VEC3","name":"accessorNormals"},{"bufferView":2,"byteOffset":1080400,"componentType":5126,"count":3306,"type":"VEC4","name":"accessorTangents"},{"bufferView":2,"byteOffset":1133296,"componentType":5126,"count":3306,"type":"VEC4","name":"accessorColors"},{"bufferView":3,"byteOffset":540200,"componentType":5126,"count":3306,"type":"VEC2","name":"accessorUVs"},{"bufferView":0,"byteOffset":517536,"componentType":5123,"count":7668,"type":"SCALAR","name":"accessorIndices"},{"bufferView":1,"byteOffset":1699944,"componentType":5126,"count":1554,"max":[20.2377548,122.3237,5.02573252],"min":[-90.93504,84.69457,-23.5576611],"type":"VEC3","name":"accessorPositions"},{"bufferView":1,"byteOffset":1718592,"componentType":5126,"count":1554,"type":"VEC3","name":"accessorNormals"},{"bufferView":2,"byteOffset":1186192,"componentType":5126,"count":1554,"type":"VEC4","name":"accessorTangents"},{"bufferView":2,"byteOffset":1211056,"componentType":5126,"count":1554,"type":"VEC4","name":"accessorColors"},{"bufferView":3,"byteOffset":566648,"componentType":5126,"count":1554,"type":"VEC2","name":"accessorUVs"},{"bufferView":0,"byteOffset":532872,"componentType":5123,"count":11700,"type":"SCALAR","name":"accessorIndices"},{"bufferView":1,"byteOffset":1737240,"componentType":5126,"count":2732,"max":[120.257561,202.324448,25.49193],"min":[-120.143608,0.401835561,-31.4254589],"type":"VEC3","name":"accessorPositions"},{"bufferView":1,"byteOffset":1770024,"componentType":5126,"count":2732,"type":"VEC3","name":"accessorNormals"},{"bufferView":2,"byteOffset":1235920,"componentType":5126,"count":2732,"type":"VEC4","name":"accessorTangents"},{"bufferView":3,"byteOffset":579080,"componentType":5126,"count":2732,"type":"VEC2","name":"accessorUVs"},{"bufferView":0,"byteOffset":556272,"componentType":5123,"count":8472,"type":"SCALAR","name":"accessorIndices"},{"bufferView":1,"byteOffset":1802808,"componentType":5126,"count":1661,"max":[116.895264,100.337624,-20.3287258],"min":[111.072136,84.5584946,-26.1518745],"type":"VEC3","name":"accessorPositions"},{"bufferView":1,"byteOffset":1822740,"componentType":5126,"count":1661,"type":"VEC3","name":"accessorNormals"},{"bufferView":2,"byteOffset":1279632,"componentType":5126,"count":1661,"type":"VEC4","name":"accessorTangents"},{"bufferView":3,"byteOffset":600936,"componentType":5126,"count":1661,"type":"VEC2","name":"accessorUVs"},{"bufferView":0,"byteOffset":573216,"componentType":5123,"count":148521,"type":"SCALAR","name":"accessorIndices"},{"bufferView":1,"byteOffset":1842672,"componentType":5126,"count":29345,"max":[120.046791,202.0244,28.6301441],"min":[-119.793022,10.1018372,-31.5998249],"type":"VEC3","name":"accessorPositions"},{"bufferView":1,"byteOffset":2194812,"componentType":5126,"count":29345,"type":"VEC3","name":"accessorNormals"},{"bufferView":2,"byteOffset":1306208,"componentType":5126,"count":29345,"type":"VEC4","name":"accessorTangents"},{"bufferView":3,"byteOffset":614224,"componentType":5126,"count":29345,"type":"VEC2","name":"accessorUVs"},{"bufferView":0,"byteOffset":870260,"componentType":5123,"count":25092,"type":"SCALAR","name":"accessorIndices"},{"bufferView":1,"byteOffset":2546952,"componentType":5126,"count":5044,"max":[45.1884766,105.309357,23.1607685],"min":[-66.84121,86.8409653,-24.3318958],"type":"VEC3","name":"accessorPositions"},{"bufferView":1,"byteOffset":2607480,"componentType":5126,"count":5044,"type":"VEC3","name":"accessorNormals"},{"bufferView":2,"byteOffset":1775728,"componentType":5126,"count":5044,"type":"VEC4","name":"accessorTangents"},{"bufferView":3,"byteOffset":848984,"componentType":5126,"count":5044,"type":"VEC2","name":"accessorUVs"},{"bufferView":0,"byteOffset":920444,"componentType":5123,"count":49026,"type":"SCALAR","name":"accessorIndices"},{"bufferView":1,"byteOffset":2668008,"componentType":5126,"count":11564,"max":[43.8888359,164.431015,31.260664],"min":[-112.564377,2.23152,-31.3327274],"type":"VEC3","name":"accessorPositions"},{"bufferView":1,"byteOffset":2806776,"componentType":5126,"count":11564,"type":"VEC3","name":"accessorNormals"},{"bufferView":2,"byteOffset":1856432,"componentType":5126,"count":11564,"type":"VEC4","name":"accessorTangents"},{"bufferView":3,"byteOffset":889336,"componentType":5126,"count":11564,"type":"VEC2","name":"accessorUVs"}],"bufferViews":[{"buffer":0,"byteLength":1018496,"name":"bufferViewScalar"},{"buffer":0,"byteOffset":1018496,"byteLength":2945544,"byteStride":12,"name":"bufferViewFloatVec3"},{"buffer":0,"byteOffset":3964040,"byteLength":2041456,"byteStride":16,"name":"bufferViewFloatVec4"},{"buffer":0,"byteOffset":6005496,"byteLength":981848,"byteStride":8,"name":"bufferViewFloatVec2"}],"buffers":[{"uri":"subs.bin","byteLength":6987344}],"materials":[{"pbrMetallicRoughness":{"baseColorFactor":[0.408499,0.453879,0.470084,1.0],"metallicFactor":0.0,"roughnessFactor":0.450053632},"normalTexture":{"index":0,"texCoord":0},"emissiveFactor":[0.0,0.0,0.0],"alphaMode":"OPAQUE","name":"victoria:M_Metal_Aluminum"},{"pbrMetallicRoughness":{"baseColorFactor":[1.0,1.0,1.0,1.0],"metallicFactor":0.0,"roughnessFactor":0.450053632},"emissiveFactor":[0.0,0.0,0.0],"alphaMode":"OPAQUE","name":"body_down"},{"pbrMetallicRoughness":{"baseColorFactor":[0.408499,0.453879,0.470084,1.0],"metallicFactor":0.0,"roughnessFactor":0.450053632},"emissiveFactor":[0.0,0.0,0.0],"alphaMode":"OPAQUE","name":"silver"},{"pbrMetallicRoughness":{"baseColorFactor":[0.0,1.0,0.0,1.0],"metallicFactor":0.0,"roughnessFactor":0.2581639},"emissiveFactor":[0.0,0.0,0.0],"alphaMode":"OPAQUE","name":"phong2"},{"pbrMetallicRoughness":{"baseColorFactor":[0.00763358735,0.00763358735,0.00763358735,1.0],"metallicFactor":0.0,"roughnessFactor":0.2581639},"emissiveFactor":[0.0,0.0,0.0],"alphaMode":"OPAQUE","name":"black"},{"pbrMetallicRoughness":{"baseColorFactor":[0.5,0.5,0.5,0.7485714],"metallicFactor":1.0,"roughnessFactor":1.0,"metallicRoughnessTexture":{"index":1,"texCoord":0}},"emissiveFactor":[0.0,0.0,0.0],"alphaMode":"BLEND","name":"glass"},{"pbrMetallicRoughness":{"baseColorFactor":[0.0552,0.0635,0.2239,1.0],"metallicFactor":0.0,"roughnessFactor":0.2581639},"emissiveFactor":[0.0,0.0,0.0],"alphaMode":"OPAQUE","name":"ceramic"},{"pbrMetallicRoughness":{"baseColorFactor":[0.5,0.5,0.5,1.0],"metallicFactor":0.0,"roughnessFactor":0.450053632},"emissiveFactor":[0.0,0.0,0.0],"alphaMode":"OPAQUE","name":"BoxLambert1"},{"pbrMetallicRoughness":{"baseColorFactor":[1.0,1.0,1.0,1.0],"baseColorTexture":{"index":4,"texCoord":0},"metallicFactor":1.0,"roughnessFactor":1.0,"metallicRoughnessTexture":{"index":3,"texCoord":0}},"normalTexture":{"index":2,"texCoord":0},"occlusionTexture":{"index":3,"texCoord":0},"emissiveFactor":[0.0,0.0,0.0],"alphaMode":"OPAQUE","name":"texture1"},{"pbrMetallicRoughness":{"baseColorFactor":[0.282352,0.298039,0.341176,1.0],"metallicFactor":0.0,"roughnessFactor":0.29965356},"emissiveFactor":[0.0,0.0,0.0],"alphaMode":"OPAQUE","name":"Steel"},{"pbrMetallicRoughness":{"baseColorFactor":[1.0,1.0,1.0,1.0],"metallicFactor":0.0,"roughnessFactor":0.2581639},"emissiveFactor":[0.0,0.0,0.0],"alphaMode":"OPAQUE","name":"white"}],"textures":[{"sampler":0,"source":0,"name":"sampledNormals.png"},{"sampler":1,"source":1,"name":"file9file10.jpg"},{"sampler":2,"source":2,"name":"texture1_Normal.jpg"},{"sampler":3,"source":3,"name":"file8file7file6.jpg"},{"sampler":4,"source":4,"name":"texture1_Base_Color.jpg"}],"images":[{"uri":"sampledNormals.png"},{"uri":"file9file10.jpg"},{"uri":"texture1_Normal.jpg"},{"uri":"file8file7file6.jpg"},{"uri":"texture1_Base_Color.jpg"}],"samplers":[{"magFilter":9729,"minFilter":9987,"wrapS":10497,"wrapT":10497},{"magFilter":9729,"minFilter":9987,"wrapS":10497,"wrapT":10497},{"magFilter":9729,"minFilter":9987,"wrapS":10497,"wrapT":10497},{"magFilter":9729,"minFilter":9987,"wrapS":10497,"wrapT":10497},{"magFilter":9729,"minFilter":9987,"wrapS":10497,"wrapT":10497}]}