{"asset":{"version":"2.0","generator":"babylon.js glTF exporter for Maya 2018 v20191202.2"},"scene":0,"scenes":[{"nodes":[0],"extensions":{}}],"nodes":[{"children":[1,5],"translation":[0.0,0.0,0.0],"rotation":[0.0,0.0,0.0,1.0],"scale":[0.1,0.1,0.1],"name":"root"},{"children":[2,3,4],"translation":[0.0,0.0,0.0],"rotation":[0.0,0.0,0.0,1.0],"scale":[1.0,1.0,1.0],"name":"kito_sb_2309"},{"mesh":0,"translation":[0.0,0.0,0.0],"rotation":[0.0,0.0,0.0,1.0],"scale":[1.0,1.0,1.0],"name":"kito_body","extras":{"currentUVSet":"map1"}},{"mesh":1,"translation":[0.0,0.0,0.0],"rotation":[0.0,0.0,0.0,1.0],"scale":[1.0,1.0,1.0],"name":"NT_polySurface124","extras":{"currentUVSet":"map1"}},{"mesh":2,"translation":[0.0,0.0,0.0],"rotation":[0.0,0.0,0.0,1.0],"scale":[1.0,1.0,1.0],"name":"NT_polySurface19","extras":{"currentUVSet":"map1"}},{"translation":[0.0,0.0,0.0],"rotation":[0.0,0.0,0.0,1.0],"scale":[1.0,1.0,1.0],"name":"Default light"}],"meshes":[{"primitives":[{"attributes":{"POSITION":1,"TANGENT":2,"NORMAL":3,"TEXCOORD_0":4},"indices":0,"mode":4,"material":0}],"name":"kito_body"},{"primitives":[{"attributes":{"POSITION":6,"TANGENT":7,"NORMAL":8,"TEXCOORD_0":9},"indices":5,"mode":4,"material":1}],"name":"NT_polySurface124"},{"primitives":[{"attributes":{"POSITION":11,"TANGENT":12,"NORMAL":13,"TEXCOORD_0":14},"indices":10,"mode":4,"material":2}],"name":"NT_polySurface19"}],"accessors":[{"bufferView":0,"componentType":5123,"count":2628,"type":"SCALAR","name":"accessorIndices"},{"bufferView":1,"componentType":5126,"count":792,"max":[4.131317,20.039999,2.84540534],"min":[-4.12868071,0.0399993919,-2.91459584],"type":"VEC3","name":"accessorPositions"},{"bufferView":2,"componentType":5126,"count":792,"type":"VEC4","name":"accessorTangents"},{"bufferView":1,"byteOffset":9504,"componentType":5126,"count":792,"type":"VEC3","name":"accessorNormals"},{"bufferView":3,"componentType":5126,"count":792,"type":"VEC2","name":"accessorUVs"},{"bufferView":0,"byteOffset":5256,"componentType":5123,"count":1890,"type":"SCALAR","name":"accessorIndices"},{"bufferView":1,"byteOffset":19008,"componentType":5126,"count":355,"max":[4.10245848,20.05911,2.603824],"min":[-4.10007238,20.0390778,-2.60447574],"type":"VEC3","name":"accessorPositions"},{"bufferView":2,"byteOffset":12672,"componentType":5126,"count":355,"type":"VEC4","name":"accessorTangents"},{"bufferView":1,"byteOffset":23268,"componentType":5126,"count":355,"type":"VEC3","name":"accessorNormals"},{"bufferView":3,"byteOffset":6336,"componentType":5126,"count":355,"type":"VEC2","name":"accessorUVs"},{"bufferView":0,"byteOffset":9036,"componentType":5123,"count":636,"type":"SCALAR","name":"accessorIndices"},{"bufferView":1,"byteOffset":27528,"componentType":5126,"count":374,"max":[4.10131836,20.02,-2.74459457],"min":[-4.098682,1.0,-2.96548653],"type":"VEC3","name":"accessorPositions"},{"bufferView":2,"byteOffset":18352,"componentType":5126,"count":374,"type":"VEC4","name":"accessorTangents"},{"bufferView":1,"byteOffset":32016,"componentType":5126,"count":374,"type":"VEC3","name":"accessorNormals"},{"bufferView":3,"byteOffset":9176,"componentType":5126,"count":374,"type":"VEC2","name":"accessorUVs"}],"bufferViews":[{"buffer":0,"byteLength":10308,"name":"bufferViewScalar"},{"buffer":0,"byteOffset":10308,"byteLength":36504,"byteStride":12,"name":"bufferViewFloatVec3"},{"buffer":0,"byteOffset":46812,"byteLength":24336,"byteStride":16,"name":"bufferViewFloatVec4"},{"buffer":0,"byteOffset":71148,"byteLength":12168,"byteStride":8,"name":"bufferViewFloatVec2"}],"buffers":[{"uri":"kito_sb_2309.bin","byteLength":83316}],"materials":[{"pbrMetallicRoughness":{"baseColorFactor":[1.0,1.0,1.0,1.0],"baseColorTexture":{"index":1,"texCoord":0},"metallicFactor":0.0,"roughnessFactor":0.33},"occlusionTexture":{"index":0,"texCoord":0},"emissiveFactor":[0.0,0.0,0.0],"alphaMode":"OPAQUE","name":"kito_"},{"pbrMetallicRoughness":{"baseColorFactor":[0.117273934,0.09058086,0.06371997,1.0],"metallicFactor":0.0,"roughnessFactor":0.450053632},"emissiveFactor":[0.0,0.0,0.0],"alphaMode":"OPAQUE","name":"kito_v:pin"},{"pbrMetallicRoughness":{"baseColorFactor":[0.481651366,0.481651366,0.481651366,1.0],"metallicFactor":0.0,"roughnessFactor":0.450053632},"emissiveFactor":[0.0,0.0,0.0],"alphaMode":"OPAQUE","name":"kito_v:body_down"}],"textures":[{"sampler":0,"source":0,"name":"kito_2309_kito_v_kito_2309_AO.jpg"},{"sampler":0,"source":1,"name":"kito_2309_kito_v_kito_2309_A.jpg"}],"images":[{"uri":"kito_2309_kito_v_kito_2309_AO.jpg"},{"uri":"kito_2309_kito_v_kito_2309_A.jpg"}],"samplers":[{"magFilter":9729,"minFilter":9987,"wrapS":10497,"wrapT":10497}]}