{"asset":{"version":"2.0","generator":"babylon.js glTF exporter for maya 2018 v1.3.1"},"scene":0,"scenes":[{"nodes":[0],"extensions":{}}],"nodes":[{"children":[1,2,3,4,5,6,7,8,9,10,11,12,13],"translation":[0.0,0.0,0.0],"rotation":[0.0,0.0,0.0,1.0],"scale":[1.0,1.0,1.0],"name":"victoria1"},{"mesh":0,"translation":[0.0,0.0,0.0],"rotation":[0.0,0.0,0.0,1.0],"scale":[1.0,1.0,1.0],"name":"NT_other"},{"mesh":1,"translation":[0.0,0.0,0.0],"rotation":[0.0,0.0,0.0,1.0],"scale":[1.0,1.0,1.0],"name":"GL_glass"},{"mesh":2,"translation":[0.0,0.0,0.0],"rotation":[0.0,0.0,0.0,1.0],"scale":[1.0,1.0,1.0],"name":"NT_silver"},{"mesh":3,"translation":[0.0,0.0,0.0],"rotation":[0.0,0.0,0.0,1.0],"scale":[1.0,1.0,1.0],"name":"nt_WHITE"},{"mesh":4,"translation":[0.0,0.0,0.0],"rotation":[0.0,0.0,0.0,1.0],"scale":[1.0,1.0,1.0],"name":"textutre"},{"mesh":5,"translation":[0.0,0.0,0.0],"rotation":[0.0,0.0,0.0,1.0],"scale":[1.0,1.0,1.0],"name":"NT_furniture"},{"mesh":6,"translation":[0.0,0.0,0.0],"rotation":[0.0,0.0,0.0,1.0],"scale":[1.0,1.0,1.0],"name":"NT_grass"},{"mesh":7,"translation":[0.0,0.0,0.0],"rotation":[0.0,0.0,0.0,1.0],"scale":[1.0,1.0,1.0],"name":"NT_black"},{"mesh":8,"translation":[0.0,0.0,0.0],"rotation":[0.0,0.0,0.0,1.0],"scale":[1.0,1.0,1.0],"name":"NT_ceramic"},{"mesh":9,"translation":[0.0,0.0,0.0],"rotation":[0.0,0.0,0.0,1.0],"scale":[1.0,1.0,1.0],"name":"NR_corpus"},{"mesh":10,"translation":[0.0,0.0,0.0],"rotation":[0.0,0.0,0.0,1.0],"scale":[1.0,1.0,1.0],"name":"NT_steel"},{"mesh":11,"translation":[0.0,0.0,0.0],"rotation":[0.0,0.0,0.0,1.0],"scale":[1.0,1.0,1.0],"name":"NT_black1"},{"mesh":12,"translation":[0.0,0.0,0.0],"rotation":[0.0,0.0,0.0,1.0],"scale":[1.0,1.0,1.0],"name":"NT_body_down"}],"meshes":[{"primitives":[{"attributes":{"POSITION":1,"NORMAL":2,"TANGENT":3,"TEXCOORD_0":4},"indices":0,"mode":4,"material":0}],"name":"NT_other"},{"primitives":[{"attributes":{"POSITION":6,"NORMAL":7,"TANGENT":8,"COLOR_0":9,"TEXCOORD_0":10},"indices":5,"mode":4,"material":1}],"name":"GL_glass"},{"primitives":[{"attributes":{"POSITION":12,"NORMAL":13,"TANGENT":14,"TEXCOORD_0":15},"indices":11,"mode":4,"material":2}],"name":"NT_silver"},{"primitives":[{"attributes":{"POSITION":17,"NORMAL":18,"TANGENT":19,"TEXCOORD_0":20},"indices":16,"mode":4,"material":3}],"name":"nt_WHITE"},{"primitives":[{"attributes":{"POSITION":22,"NORMAL":23,"TANGENT":24,"TEXCOORD_0":25},"indices":21,"mode":4,"material":4}],"name":"textutre"},{"primitives":[{"attributes":{"POSITION":27,"NORMAL":28,"TANGENT":29,"TEXCOORD_0":30},"indices":26,"mode":4,"material":5}],"name":"NT_furniture"},{"primitives":[{"attributes":{"POSITION":32,"NORMAL":33,"TANGENT":34,"TEXCOORD_0":35},"indices":31,"mode":4,"material":6}],"name":"NT_grass"},{"primitives":[{"attributes":{"POSITION":37,"NORMAL":38,"TANGENT":39,"TEXCOORD_0":40},"indices":36,"mode":4,"material":7}],"name":"NT_black"},{"primitives":[{"attributes":{"POSITION":42,"NORMAL":43,"TANGENT":44,"COLOR_0":45,"TEXCOORD_0":46},"indices":41,"mode":4,"material":8}],"name":"NT_ceramic"},{"primitives":[{"attributes":{"POSITION":48,"NORMAL":49,"TANGENT":50,"TEXCOORD_0":51},"indices":47,"mode":4,"material":3}],"name":"NR_corpus"},{"primitives":[{"attributes":{"POSITION":53,"NORMAL":54,"TANGENT":55,"TEXCOORD_0":56},"indices":52,"mode":4,"material":9}],"name":"NT_steel"},{"primitives":[{"attributes":{"POSITION":58,"NORMAL":59,"TANGENT":60,"TEXCOORD_0":61},"indices":57,"mode":4,"material":10}],"name":"NT_black1"},{"primitives":[{"attributes":{"POSITION":63,"NORMAL":64,"TANGENT":65,"TEXCOORD_0":66},"indices":62,"mode":4,"material":11}],"name":"NT_body_down"}],"accessors":[{"bufferView":0,"componentType":5123,"count":5184,"type":"SCALAR","name":"accessorIndices"},{"bufferView":1,"componentType":5126,"count":1020,"max":[116.895264,100.09877,-20.3287258],"min":[111.072136,84.5584946,-26.1518745],"type":"VEC3","name":"accessorPositions"},{"bufferView":1,"byteOffset":12240,"componentType":5126,"count":1020,"type":"VEC3","name":"accessorNormals"},{"bufferView":2,"componentType":5126,"count":1020,"type":"VEC4","name":"accessorTangents"},{"bufferView":3,"componentType":5126,"count":1020,"type":"VEC2","name":"accessorUVs"},{"bufferView":0,"byteOffset":10368,"componentType":5123,"count":16200,"type":"SCALAR","name":"accessorIndices"},{"bufferView":1,"byteOffset":24480,"componentType":5126,"count":3306,"max":[20.12512,120.641785,28.07195],"min":[-60.0657425,32.655735,-23.44502],"type":"VEC3","name":"accessorPositions"},{"bufferView":1,"byteOffset":64152,"componentType":5126,"count":3306,"type":"VEC3","name":"accessorNormals"},{"bufferView":2,"byteOffset":16320,"componentType":5126,"count":3306,"type":"VEC4","name":"accessorTangents"},{"bufferView":2,"byteOffset":69216,"componentType":5126,"count":3306,"type":"VEC4","name":"accessorColors"},{"bufferView":3,"byteOffset":8160,"componentType":5126,"count":3306,"type":"VEC2","name":"accessorUVs"},{"bufferView":0,"byteOffset":42768,"componentType":5123,"count":86346,"type":"SCALAR","name":"accessorIndices"},{"bufferView":1,"byteOffset":103824,"componentType":5126,"count":25231,"max":[120.179237,204.324432,32.9301147],"min":[-120.257561,2.16608238,-31.9996319],"type":"VEC3","name":"accessorPositions"},{"bufferView":1,"byteOffset":406596,"componentType":5126,"count":25231,"type":"VEC3","name":"accessorNormals"},{"bufferView":2,"byteOffset":122112,"componentType":5126,"count":25231,"type":"VEC4","name":"accessorTangents"},{"bufferView":3,"byteOffset":34608,"componentType":5126,"count":25231,"type":"VEC2","name":"accessorUVs"},{"bufferView":0,"byteOffset":215460,"componentType":5123,"count":53061,"type":"SCALAR","name":"accessorIndices"},{"bufferView":1,"byteOffset":709368,"componentType":5126,"count":12550,"max":[114.774666,164.431015,31.260664],"min":[-112.564377,2.23152,-31.3327274],"type":"VEC3","name":"accessorPositions"},{"bufferView":1,"byteOffset":859968,"componentType":5126,"count":12550,"type":"VEC3","name":"accessorNormals"},{"bufferView":2,"byteOffset":525808,"componentType":5126,"count":12550,"type":"VEC4","name":"accessorTangents"},{"bufferView":3,"byteOffset":236456,"componentType":5126,"count":12550,"type":"VEC2","name":"accessorUVs"},{"bufferView":0,"byteOffset":321584,"componentType":5123,"count":143934,"type":"SCALAR","name":"accessorIndices"},{"bufferView":1,"byteOffset":1010568,"componentType":5126,"count":28339,"max":[120.046791,202.0244,27.1419849],"min":[-119.793022,10.1018372,-31.5998249],"type":"VEC3","name":"accessorPositions"},{"bufferView":1,"byteOffset":1350636,"componentType":5126,"count":28339,"type":"VEC3","name":"accessorNormals"},{"bufferView":2,"byteOffset":726608,"componentType":5126,"count":28339,"type":"VEC4","name":"accessorTangents"},{"bufferView":3,"byteOffset":336856,"componentType":5126,"count":28339,"type":"VEC2","name":"accessorUVs"},{"bufferView":0,"byteOffset":609452,"componentType":5123,"count":30600,"type":"SCALAR","name":"accessorIndices"},{"bufferView":1,"byteOffset":1690704,"componentType":5126,"count":6760,"max":[103.8106,172.094086,30.2898388],"min":[-103.754768,61.3763123,-1.22477341],"type":"VEC3","name":"accessorPositions"},{"bufferView":1,"byteOffset":1771824,"componentType":5126,"count":6760,"type":"VEC3","name":"accessorNormals"},{"bufferView":2,"byteOffset":1180032,"componentType":5126,"count":6760,"type":"VEC4","name":"accessorTangents"},{"bufferView":3,"byteOffset":563568,"componentType":5126,"count":6760,"type":"VEC2","name":"accessorUVs"},{"bufferView":0,"byteOffset":670652,"componentType":5123,"count":76146,"type":"SCALAR","name":"accessorIndices"},{"bufferView":1,"byteOffset":1852944,"componentType":5126,"count":21917,"max":[-92.2548752,120.108536,-3.58599854],"min":[-118.246941,95.59827,-25.9259338],"type":"VEC3","name":"accessorPositions"},{"bufferView":1,"byteOffset":2115948,"componentType":5126,"count":21917,"type":"VEC3","name":"accessorNormals"},{"bufferView":2,"byteOffset":1288192,"componentType":5126,"count":21917,"type":"VEC4","name":"accessorTangents"},{"bufferView":3,"byteOffset":617648,"componentType":5126,"count":21917,"type":"VEC2","name":"accessorUVs"},{"bufferView":0,"byteOffset":822944,"componentType":5123,"count":53196,"type":"SCALAR","name":"accessorIndices"},{"bufferView":1,"byteOffset":2378952,"componentType":5126,"count":13973,"max":[119.958366,86.91858,28.1565762],"min":[-119.847931,1.29221007E-07,-25.3755932],"type":"VEC3","name":"accessorPositions"},{"bufferView":1,"byteOffset":2546628,"componentType":5126,"count":13973,"type":"VEC3","name":"accessorNormals"},{"bufferView":2,"byteOffset":1638864,"componentType":5126,"count":13973,"type":"VEC4","name":"accessorTangents"},{"bufferView":3,"byteOffset":792984,"componentType":5126,"count":13973,"type":"VEC2","name":"accessorUVs"},{"bufferView":0,"byteOffset":929336,"componentType":5123,"count":7668,"type":"SCALAR","name":"accessorIndices"},{"bufferView":1,"byteOffset":2714304,"componentType":5126,"count":1554,"max":[20.2377548,122.3237,5.02573252],"min":[-90.93504,84.69457,-23.5576611],"type":"VEC3","name":"accessorPositions"},{"bufferView":1,"byteOffset":2732952,"componentType":5126,"count":1554,"type":"VEC3","name":"accessorNormals"},{"bufferView":2,"byteOffset":1862432,"componentType":5126,"count":1554,"type":"VEC4","name":"accessorTangents"},{"bufferView":2,"byteOffset":1887296,"componentType":5126,"count":1554,"type":"VEC4","name":"accessorColors"},{"bufferView":3,"byteOffset":904768,"componentType":5126,"count":1554,"type":"VEC2","name":"accessorUVs"},{"bufferView":0,"byteOffset":944672,"componentType":5123,"count":11700,"type":"SCALAR","name":"accessorIndices"},{"bufferView":1,"byteOffset":2751600,"componentType":5126,"count":2732,"max":[120.257561,202.324463,25.49193],"min":[-120.143608,0.40183568,-31.4254589],"type":"VEC3","name":"accessorPositions"},{"bufferView":1,"byteOffset":2784384,"componentType":5126,"count":2732,"type":"VEC3","name":"accessorNormals"},{"bufferView":2,"byteOffset":1912160,"componentType":5126,"count":2732,"type":"VEC4","name":"accessorTangents"},{"bufferView":3,"byteOffset":917200,"componentType":5126,"count":2732,"type":"VEC2","name":"accessorUVs"},{"bufferView":0,"byteOffset":968072,"componentType":5123,"count":25092,"type":"SCALAR","name":"accessorIndices"},{"bufferView":1,"byteOffset":2817168,"componentType":5126,"count":5044,"max":[45.1884766,105.309357,23.1607685],"min":[-66.84121,86.8409653,-24.3318958],"type":"VEC3","name":"accessorPositions"},{"bufferView":1,"byteOffset":2877696,"componentType":5126,"count":5044,"type":"VEC3","name":"accessorNormals"},{"bufferView":2,"byteOffset":1955872,"componentType":5126,"count":5044,"type":"VEC4","name":"accessorTangents"},{"bufferView":3,"byteOffset":939056,"componentType":5126,"count":5044,"type":"VEC2","name":"accessorUVs"},{"bufferView":0,"byteOffset":1018256,"componentType":5123,"count":31812,"type":"SCALAR","name":"accessorIndices"},{"bufferView":1,"byteOffset":2938224,"componentType":5126,"count":6352,"max":[57.67845,128.479767,12.9974689],"min":[-111.190575,87.09942,-28.4152966],"type":"VEC3","name":"accessorPositions"},{"bufferView":1,"byteOffset":3014448,"componentType":5126,"count":6352,"type":"VEC3","name":"accessorNormals"},{"bufferView":2,"byteOffset":2036576,"componentType":5126,"count":6352,"type":"VEC4","name":"accessorTangents"},{"bufferView":3,"byteOffset":979408,"componentType":5126,"count":6352,"type":"VEC2","name":"accessorUVs"},{"bufferView":0,"byteOffset":1081880,"componentType":5123,"count":840,"type":"SCALAR","name":"accessorIndices"},{"bufferView":1,"byteOffset":3090672,"componentType":5126,"count":496,"max":[119.956718,202.12439,23.4919147],"min":[-119.843086,10.0018387,-32.9301147],"type":"VEC3","name":"accessorPositions"},{"bufferView":1,"byteOffset":3096624,"componentType":5126,"count":496,"type":"VEC3","name":"accessorNormals"},{"bufferView":2,"byteOffset":2138208,"componentType":5126,"count":496,"type":"VEC4","name":"accessorTangents"},{"bufferView":3,"byteOffset":1030224,"componentType":5126,"count":496,"type":"VEC2","name":"accessorUVs"}],"bufferViews":[{"buffer":0,"byteLength":1083560,"name":"bufferViewScalar"},{"buffer":0,"byteOffset":1083560,"byteLength":3102576,"byteStride":12,"name":"bufferViewFloatVec3"},{"buffer":0,"byteOffset":4186136,"byteLength":2146144,"byteStride":16,"name":"bufferViewFloatVec4"},{"buffer":0,"byteOffset":6332280,"byteLength":1034192,"byteStride":8,"name":"bufferViewFloatVec2"}],"buffers":[{"uri":"victoria1.bin","byteLength":7366472}],"materials":[{"pbrMetallicRoughness":{"baseColorFactor":[0.201956555,0.174013287,0.139709145,1.0],"metallicFactor":0.0,"roughnessFactor":0.2581639},"emissiveFactor":[0.0,0.0,0.0],"alphaMode":"OPAQUE","name":"phong5"},{"pbrMetallicRoughness":{"baseColorFactor":[0.5,0.5,0.5,0.350000024],"metallicFactor":1.0,"roughnessFactor":0.33,"metallicRoughnessTexture":{"index":0,"texCoord":0}},"emissiveFactor":[0.0,0.0,0.0],"alphaMode":"BLEND","name":"glass1"},{"pbrMetallicRoughness":{"baseColorFactor":[0.408499,0.453879,0.470084,1.0],"metallicFactor":0.0,"roughnessFactor":0.450053632},"emissiveFactor":[0.0,0.0,0.0],"alphaMode":"OPAQUE","name":"silver"},{"pbrMetallicRoughness":{"baseColorFactor":[1.0,1.0,1.0,1.0],"baseColorTexture":{"index":1,"texCoord":0},"metallicFactor":0.0,"roughnessFactor":0.2581639},"emissiveFactor":[0.0,0.0,0.0],"alphaMode":"OPAQUE","name":"phong9"},{"pbrMetallicRoughness":{"baseColorFactor":[1.0,1.0,1.0,1.0],"baseColorTexture":{"index":4,"texCoord":0},"metallicFactor":1.0,"roughnessFactor":1.0,"metallicRoughnessTexture":{"index":3,"texCoord":0}},"normalTexture":{"index":2,"texCoord":0},"occlusionTexture":{"index":3,"texCoord":0},"emissiveFactor":[0.0,0.0,0.0],"alphaMode":"OPAQUE","name":"text"},{"pbrMetallicRoughness":{"baseColorFactor":[0.408499,0.453879,0.470084,1.0],"metallicFactor":0.0,"roughnessFactor":0.450053632},"normalTexture":{"index":5,"texCoord":0},"emissiveFactor":[0.0,0.0,0.0],"alphaMode":"OPAQUE","name":"M_Metal_Aluminum"},{"pbrMetallicRoughness":{"baseColorFactor":[0.1393,0.3578,0.0,1.0],"metallicFactor":0.0,"roughnessFactor":0.2581639},"emissiveFactor":[0.0,0.0,0.0],"alphaMode":"OPAQUE","name":"phong2"},{"pbrMetallicRoughness":{"baseColorFactor":[0.00763358735,0.00763358735,0.00763358735,1.0],"metallicFactor":0.0,"roughnessFactor":0.2581639},"emissiveFactor":[0.0,0.0,0.0],"alphaMode":"OPAQUE","name":"black"},{"pbrMetallicRoughness":{"baseColorFactor":[0.0552,0.0635,0.2239,1.0],"metallicFactor":0.0,"roughnessFactor":0.2581639},"emissiveFactor":[0.0,0.0,0.0],"alphaMode":"OPAQUE","name":"ceramic"},{"pbrMetallicRoughness":{"baseColorFactor":[0.282352,0.298039,0.341176,1.0],"metallicFactor":0.0,"roughnessFactor":0.29965356},"emissiveFactor":[0.0,0.0,0.0],"alphaMode":"OPAQUE","name":"Steel"},{"pbrMetallicRoughness":{"baseColorFactor":[0.0,0.0,0.0,1.0],"metallicFactor":0.0,"roughnessFactor":0.450053632},"emissiveFactor":[0.0,0.0,0.0],"alphaMode":"OPAQUE","name":"phong4"},{"pbrMetallicRoughness":{"baseColorFactor":[1.0,1.0,1.0,1.0],"metallicFactor":0.0,"roughnessFactor":0.2581639},"emissiveFactor":[0.0,0.0,0.0],"alphaMode":"OPAQUE","name":"phong10"}],"textures":[{"sampler":0,"source":0,"name":"84file21.jpg"},{"sampler":1,"source":1,"name":"phong9_baseColor.jpg"},{"sampler":2,"source":2,"name":"texture1_Normal_OpenGL.jpg"},{"sampler":3,"source":3,"name":"file19file18file17.jpg"},{"sampler":4,"source":4,"name":"texture1_Base_Color.jpg"},{"sampler":5,"source":5,"name":"sampledNormals.png"}],"images":[{"uri":"84file21.jpg"},{"uri":"phong9_baseColor.jpg"},{"uri":"texture1_Normal_OpenGL.jpg"},{"uri":"file19file18file17.jpg"},{"uri":"texture1_Base_Color.jpg"},{"uri":"sampledNormals.png"}],"samplers":[{"magFilter":9729,"minFilter":9987,"wrapS":10497,"wrapT":10497},{"magFilter":9729,"minFilter":9987,"wrapS":10497,"wrapT":10497},{"magFilter":9729,"minFilter":9987,"wrapS":10497,"wrapT":10497},{"magFilter":9729,"minFilter":9987,"wrapS":10497,"wrapT":10497},{"magFilter":9729,"minFilter":9987,"wrapS":10497,"wrapT":10497},{"magFilter":9729,"minFilter":9987,"wrapS":10497,"wrapT":10497}]}